<svg width="366" height="104" viewBox="0 0 366 104" fill="none" xmlns="http://www.w3.org/2000/svg">
<path fill="black" d="M0.8125 5.73438H15.6719V65.9688H58.2812V79H0.8125V5.73438ZM78.2969 16.1406C76.9219 16.1406 75.6719 15.9531 74.5469 15.5781C73.4531 15.1719 72.5156 14.6406 71.7344 13.9844C70.9531 13.2969 70.3438 12.5156 69.9062 11.6406C69.5 10.7344 69.2969 9.78125 69.2969 8.78125C69.2969 7.75 69.5 6.79688 69.9062 5.92188C70.3438 5.01562 70.9531 4.23438 71.7344 3.57812C72.5156 2.92188 73.4531 2.40625 74.5469 2.03125C75.6719 1.625 76.9219 1.42188 78.2969 1.42188C79.7031 1.42188 80.9531 1.625 82.0469 2.03125C83.1719 2.40625 84.125 2.92188 84.9062 3.57812C85.6875 4.23438 86.2812 5.01562 86.6875 5.92188C87.125 6.79688 87.3438 7.75 87.3438 8.78125C87.3438 9.78125 87.125 10.7344 86.6875 11.6406C86.2812 12.5156 85.6875 13.2969 84.9062 13.9844C84.125 14.6406 83.1719 15.1719 82.0469 15.5781C80.9531 15.9531 79.7031 16.1406 78.2969 16.1406ZM71.3594 23.6875H85.2344V79H71.3594V23.6875ZM109.094 34.0938H99.625V23.6875H109.094C109.094 19.9375 109.625 16.6094 110.688 13.7031C111.75 10.7656 113.281 8.29688 115.281 6.29688C117.312 4.26562 119.766 2.71875 122.641 1.65625C125.547 0.59375 128.812 0.0625 132.438 0.0625C134.969 0.0625 137.453 0.3125 139.891 0.8125C142.328 1.28125 144.484 1.96875 146.359 2.875L141.438 14.5469C140.688 14.1094 139.625 13.7031 138.25 13.3281C136.906 12.9531 135.422 12.7656 133.797 12.7656C130.609 12.7656 128.031 13.6719 126.062 15.4844C124.125 17.2656 123.094 20 122.969 23.6875H140.453V34.0938H122.969V79H109.094V34.0938ZM148.516 51.1562C148.516 47.4062 149.281 43.8281 150.812 40.4219C152.344 36.9844 154.547 33.9531 157.422 31.3281C160.297 28.7031 163.812 26.6094 167.969 25.0469C172.156 23.4844 176.906 22.7031 182.219 22.7031C187.5 22.7031 192.25 23.5 196.469 25.0938C200.719 26.6562 204.312 28.8125 207.25 31.5625C210.219 34.3125 212.484 37.5469 214.047 41.2656C215.641 44.9844 216.438 48.9688 216.438 53.2188C216.438 53.75 216.422 54.3281 216.391 54.9531C216.391 55.5469 216.359 56.0938 216.297 56.5938H163.984C164.578 58.25 165.531 59.7656 166.844 61.1406C168.188 62.5156 169.859 63.7031 171.859 64.7031C173.859 65.7031 176.172 66.4844 178.797 67.0469C181.422 67.5781 184.328 67.8438 187.516 67.8438C190.703 67.8438 193.875 67.5156 197.031 66.8594C200.188 66.1719 203.203 65.3125 206.078 64.2812L210.766 74.875C208.953 75.7188 207.109 76.4688 205.234 77.125C203.391 77.75 201.453 78.2812 199.422 78.7188C197.422 79.125 195.312 79.4375 193.094 79.6562C190.906 79.875 188.594 79.9844 186.156 79.9844C179.938 79.9844 174.484 79.2344 169.797 77.7344C165.109 76.2344 161.188 74.1875 158.031 71.5938C154.875 69 152.5 65.9531 150.906 62.4531C149.312 58.9531 148.516 55.1875 148.516 51.1562ZM201.719 45.7656C201.219 44.2344 200.438 42.8125 199.375 41.5C198.344 40.1562 197.047 39 195.484 38.0312C193.922 37.0312 192.109 36.25 190.047 35.6875C187.984 35.125 185.719 34.8438 183.25 34.8438C180.625 34.8438 178.234 35.1406 176.078 35.7344C173.922 36.3281 172.031 37.125 170.406 38.125C168.781 39.125 167.422 40.2812 166.328 41.5938C165.266 42.9062 164.484 44.2969 163.984 45.7656H201.719ZM231.766 1.23438H245.641V79H231.766V1.23438ZM270.062 85.9375C271.5 86.875 273.062 87.7031 274.75 88.4219C276.438 89.1406 278.188 89.7344 280 90.2031C281.844 90.6719 283.719 91.0156 285.625 91.2344C287.531 91.4844 289.422 91.6094 291.297 91.6094C297.672 91.6094 302.578 90.2344 306.016 87.4844C309.484 84.7656 311.219 80.6719 311.219 75.2031V73.3281C310 74.1719 308.625 74.9531 307.094 75.6719C305.594 76.3594 303.969 76.9531 302.219 77.4531C300.5 77.9531 298.672 78.3438 296.734 78.625C294.828 78.875 292.891 79 290.922 79C286.703 79 282.922 78.3906 279.578 77.1719C276.266 75.9219 273.453 74.1094 271.141 71.7344C268.859 69.3281 267.109 66.375 265.891 62.875C264.672 59.375 264.062 55.375 264.062 50.875V23.6875H277.891V47.0312C277.891 53.7188 279.156 58.6562 281.688 61.8438C284.25 65 288.281 66.5781 293.781 66.5781C297.656 66.5781 301.078 65.9062 304.047 64.5625C307.047 63.1875 309.438 61.4375 311.219 59.3125V23.6875H325.094V72.6719C325.094 77.9531 324.344 82.5312 322.844 86.4062C321.344 90.3125 319.156 93.5469 316.281 96.1094C313.438 98.6719 309.938 100.578 305.781 101.828C301.625 103.109 296.906 103.75 291.625 103.75C286.469 103.75 281.656 103.203 277.188 102.109C272.719 101.016 268.625 99.5312 264.906 97.6562L270.062 85.9375ZM343.328 70.8906C343.328 69.6406 343.578 68.4688 344.078 67.375C344.609 66.25 345.359 65.2812 346.328 64.4688C347.297 63.625 348.469 62.9688 349.844 62.5C351.219 62.0312 352.766 61.7969 354.484 61.7969C356.203 61.7969 357.75 62.0312 359.125 62.5C360.5 62.9688 361.656 63.625 362.594 64.4688C363.562 65.2812 364.297 66.25 364.797 67.375C365.328 68.4688 365.594 69.6406 365.594 70.8906C365.594 72.1406 365.328 73.3281 364.797 74.4531C364.297 75.5469 363.562 76.5 362.594 77.3125C361.656 78.125 360.5 78.7656 359.125 79.2344C357.75 79.7344 356.203 79.9844 354.484 79.9844C352.766 79.9844 351.219 79.7344 349.844 79.2344C348.469 78.7656 347.297 78.125 346.328 77.3125C345.359 76.5 344.609 75.5469 344.078 74.4531C343.578 73.3281 343.328 72.1406 343.328 70.8906Z"/>
</svg>
